<svg xmlns="http://www.w3.org/2000/svg" viewBox="0 0 221.67 82.07">
  <defs>
    <style>
      .a {
        fill: #fff;
      }

    </style>
  </defs>
  <path class="a"
    d="M221.07,20.51a5.8,5.8,0,0,0-1.87-2.57,5.78,5.78,0,0,0-2.34-.91c-2.74-.52-5.56.15-8.23,1A26.93,26.93,0,0,0,200,22a21.56,21.56,0,0,0-5.68,7,46.13,46.13,0,0,0-3.37,8.33c-.29.93-.56,1.88-.82,2.83-.6.61-1.17,1.16-1.85,1.8a30.62,30.62,0,0,1-6.66,4.94c-8.91,4.71-12.37.27-12.37.27l2.35-1.88c1-.83,1.94-1.67,2.87-2.54a71.07,71.07,0,0,0,5.31-5.53,35.78,35.78,0,0,0,4.39-6.07c.74-1.34,1.31-3.1.37-4.3a3.47,3.47,0,0,0-2.09-1.12,12.46,12.46,0,0,0-8,1.16,26.3,26.3,0,0,0-6.63,4.91c-6,5.77-10.41,12.69-18.06,16S139,47.11,139,47.11c5.27-4.3,10.59-9.14,14.26-14.92,0,0,2.85-4,.66-5.69-2-1.51-5.86-1-8.08-.32a22.38,22.38,0,0,0-8.23,5.34c-3.06,2.88-5.24,6.54-8,9.72a21.08,21.08,0,0,1-5.89,5C113,52.62,107,47.26,109,39.75c.44-1.72,1.13-1.56,2.79-2.07a12.87,12.87,0,0,0,7.3-3.6l2.33-2.34c.88-.87-.2-.91-.2-.91-2.36.09-6.43,1.36-8.76,1.67a50,50,0,0,1,4.65-5.62c.18-.21.44-.35.56-.6s.2-.48,0-.63a1,1,0,0,0-.9,0,47,47,0,0,0-10.52,8.53c-8.74,4.72-9.38,7-9.38,7s-.52,1.07.47.75c.7-.23,1.23-.59,1.91-.88a5.18,5.18,0,0,1,2-.7s-4.56,6.66-5,12.3c-.27,3.66.5,6.16,2.79,8,2.5,2,6.49,1.66,9.2.95,6.45-1.7,12-5.75,16.87-10.35,0,0-2.76,12.29,9.88,10.75,0,0,9.84-.79,20.88-13,0,0-4.58,14.4,9.17,13,0,0,9.41-.4,21.49-13.41,0,0,1-1.1,2-2.47-.51,2.19-1,4.39-1.4,6.61A152,152,0,0,0,185,68.54c-.17,2.07-.33,4.14-.4,6.22,0,1,.07,2.07.12,3.09a14.82,14.82,0,0,0,.35,2.89c.38,1.44,2.05,1.45,3.23,1.21a7.79,7.79,0,0,0,2.31-1.31,29.19,29.19,0,0,0,4.72-4.44,19.07,19.07,0,0,0,2.12-2.84c.14-.33.29-.66.44-1,.13-.56-.09-.77-.64-.64h-.4a2.73,2.73,0,0,1-1.71-2.13,30,30,0,0,1-.67-8.35c0-1.48.1-3,.19-4.45,0-.72.11-1.44.17-2.15,0-.31,0-2,.2-2.16,1.87-1.24,3.74-2.48,5.53-3.82a101.51,101.51,0,0,0,9.14-7.4,63.55,63.55,0,0,0,7.69-8.93,42.26,42.26,0,0,0,2.77-4.24,10.37,10.37,0,0,0,1.51-4.06A7.3,7.3,0,0,0,221.07,20.51Zm-83.54,23a12.47,12.47,0,0,1,.57-4.76c.18-.48.39-.56.39-.56.81-.56,3.75.61,3.75.61Zm30.14.11a11.61,11.61,0,0,1,.61-5s.18-.46.53-.46a9.85,9.85,0,0,1,3.69.65ZM212.9,31c-.26,2.65-2,4.59-3.72,6.48a32.47,32.47,0,0,1-6.85,5.59,48.11,48.11,0,0,1-6.49,3.36c.9-6,1.82-12,3.79-17.67a8.83,8.83,0,0,1,2.2-3.85,7.25,7.25,0,0,1,4.68-1.65,6.5,6.5,0,0,1,5,2.29A7.56,7.56,0,0,1,212.9,31Z" />
  <path class="a"
    d="M85.34,33l1,.66a3.56,3.56,0,0,0,3.17,1s6.67-.68,5.72-6.83c-.45-2.93-6.57-2.23-6.57-2.23-8.57.8-15.2,10-15.2,10-4.11,5.43-1,8.91-.16,9.71a5.68,5.68,0,0,0,1.78,1c.91.39,1.84.73,2.77,1.07,1.88.7,3.92,1.17,5,2.94,1,1.56-.87,1.86-.87,1.86a5.78,5.78,0,0,1-3.6-1.45c-.66-.55-1.39-1.63-2.22-1.61-.52,0-1.12.75-1.49,1.11-2.2,2.16-5.61,5.58-7.38,7.34-.51.52-1.53,1.54-.3,2.91.37.42,2.5,2.46,8.38,1.48,6.07-1,12.3-5.77,12.3-5.77s5.79-3.58,6.24-9.2A7.38,7.38,0,0,0,90,39.79c-.39-.23-.8-.43-1.21-.62-1.7-.79-3.52-1.37-4.93-2.64a2.8,2.8,0,0,1-.7-.87s-.67-1.64.25-2.6A1.4,1.4,0,0,1,85.34,33Z" />
  <path class="a"
    d="M45.44,34.42c-2.31-2.53-6-1.64-6-1.64a20.47,20.47,0,0,0-4.19,1.44S45.36,26.63,48.4,20.16c0,0,7.38-12,2.17-17.78s-16.7.76-16.7.76S21.37,10.36,12,20.36A64.37,64.37,0,0,0,6.53,26.9,35.33,35.33,0,0,0,.92,37.81a10.39,10.39,0,0,0-.44,3,5,5,0,0,0,.9,2.83,1.56,1.56,0,0,0,.78.61,1.49,1.49,0,0,0,.81,0,5.31,5.31,0,0,0,1.25-.54,37.21,37.21,0,0,0,10.56-8.74l.11-.13L9.79,52.66S1,59.32.05,70.52c0,0-1.1,7,7.14,5.34,0,0,11.21-1.22,26.88-13.1,0,0,12.71-9.41,13.17-21.88C47.24,40.88,47.75,36.94,45.44,34.42ZM34.36,51.22A20.39,20.39,0,0,1,21.36,63s-4.57,1.32-6.42,0a3.15,3.15,0,0,1-1.6-2.86,22.13,22.13,0,0,0,2.12-2.26s.56-.72.54-1-.37-1.61-.37-2.09.55-4.35.55-4.35,8.17-5.88,14.14-5.06c0,0,2.92.15,3.89,1.79S34.36,51.22,34.36,51.22ZM30.27,31.88q-4.21,3.86-8.6,7.53c-1.25,1-2.5,2.08-3.77,3.09L19.22,36a60,60,0,0,0,1-7.89.73.73,0,0,0-.15-.6.47.47,0,0,0-.44-.09,1.25,1.25,0,0,0-.42.2c-1.84,1.19-3.62,2.66-4,4.94,0-.29-.58-.89-.71-1.15a3,3,0,0,1-.34-1.67,6.17,6.17,0,0,1,.55-2c.09-.22.2-.44.31-.66a27.46,27.46,0,0,1,6.29-8c3.1-2.83,6.44-5.29,10.55-6.39a10.15,10.15,0,0,1,4.54-.34,5.13,5.13,0,0,1,3.65,2.53,5,5,0,0,1,.47,2.88,10.18,10.18,0,0,1-.8,2.85c-.23.54-.47,1.06-.74,1.58C37,26.08,33.45,29,30.27,31.88Z" />
  <path class="a"
    d="M66.08,23.48c2.75-2.75,3.86-6.09,2.49-7.46s-4.72-.26-7.46,2.48S57.24,24.59,58.62,26,63.33,26.23,66.08,23.48Z" />
  <path class="a"
    d="M68,32.73c.83-.61,1.91-1.9.27-1.9A8.81,8.81,0,0,0,65,32.28C58.83,36.13,45.84,48.73,45.85,62c0,0-.05,6.39,4.91,3.52,4-2.33,13.56-13.3,13.66-13.65s.15-.48,0-.66A.65.65,0,0,0,64,51a3.71,3.71,0,0,0-1.56.67,4.59,4.59,0,0,1-2,.77c-.62,0-.91-.55-1-1.12C57.83,40.2,67.9,32.84,68,32.73Z" />
</svg>
